<?xml version="1.0" encoding="UTF-8"?>
<svg id="Layer_2" data-name="Layer 2" xmlns="http://www.w3.org/2000/svg" viewBox="0 0 1771.93 844.77">
  <g id="Layer_1-2" data-name="Layer 1">
    <path d="M1771.93,688.16c0,43.25-17.53,82.4-45.87,110.74-28.34,28.34-67.48,45.87-110.73,45.87H157.45c-79.19,0-144.65-58.78-155.13-135.09-1.55-8.9-2.32-17.92-2.32-26.93,0-40.07,15.29-80.15,45.87-110.73L572.02,45.87c61.16-61.16,160.31-61.16,221.47,0,30.58,30.58,45.87,70.66,45.87,110.74s-15.29,80.15-45.87,110.73l-264.22,264.22h1086.06c86.49,0,156.6,70.11,156.6,156.6Z"/>
  </g>
</svg>