<?xml version="1.0" encoding="UTF-8"?>
<svg id="Layer_2" data-name="Layer 2" xmlns="http://www.w3.org/2000/svg" viewBox="0 0 1735.39 1735.4">
  <g id="Layer_1-2" data-name="Layer 1">
    <path d="M1689.28,1466.63c61.48,61.48,61.48,161.17,0,222.65-30.75,30.75-71.04,46.12-111.33,46.12s-80.58-15.37-111.32-46.12l-598.93-598.93-598.94,598.93c-61.48,61.49-161.17,61.49-222.65,0-30.74-30.74-46.11-71.03-46.11-111.33s15.37-80.58,46.11-111.32l598.93-598.93L46.11,268.77c-61.48-61.49-61.48-161.17,0-222.66C76.85,15.37,117.14,0,157.43,0s80.59,15.37,111.33,46.11l598.94,598.94L1466.63,46.11c61.48-61.48,161.16-61.48,222.65,0,30.74,30.74,46.11,71.04,46.11,111.33s-15.37,80.59-46.11,111.33l-598.93,598.93,598.93,598.93Z"/>
  </g>
</svg>