<?xml version="1.0" encoding="UTF-8"?>
<svg id="Layer_2" data-name="Layer 2" xmlns="http://www.w3.org/2000/svg" viewBox="0 0 2578.87 2513.38">
  <g id="Layer_1-2" data-name="Layer 1">
    <g>
      <path d="M1990.23,2513.38H600.37c-54.12,0-106.71-10.63-156.28-31.6-47.81-20.22-90.72-49.15-127.54-85.96-36.82-36.82-65.74-79.73-85.96-127.54-20.97-49.58-31.6-102.16-31.6-156.28V812.72c0-77.32,62.68-140,140-140s140,62.68,140,140v1299.27c0,66.93,54.45,121.39,121.38,121.39h1389.86c66.93,0,121.39-54.46,121.39-121.39V812.72c0-77.32,62.68-140,140-140s140,62.68,140,140v1299.27c0,54.13-10.63,106.71-31.6,156.28-20.22,47.81-49.15,90.73-85.96,127.54-36.82,36.82-79.73,65.74-127.54,85.96-49.58,20.97-102.16,31.6-156.28,31.6Z"/>
      <rect x="0" y="275.42" width="2578.87" height="279.38" rx="139.69" ry="139.69"/>
      <rect x="1209.93" y="1372.7" width="1075.32" height="181.94" rx="90.97" ry="90.97" transform="translate(3211.26 -283.92) rotate(90)"/>
      <rect x="757.65" y="1372.7" width="1075.32" height="181.94" rx="90.97" ry="90.97" transform="translate(2758.97 168.36) rotate(90)"/>
      <rect x="309.28" y="1372.7" width="1075.32" height="181.94" rx="90.97" ry="90.97" transform="translate(2310.61 616.73) rotate(90)"/>
      <path d="M1169.15,0h240.57c109.93,0,199.18,89.25,199.18,199.18v99.03h-638.93v-99.03c0-109.93,89.25-199.18,199.18-199.18Z"/>
    </g>
  </g>
</svg>