<?xml version="1.0" encoding="UTF-8"?>
<svg id="Layer_2" data-name="Layer 2" xmlns="http://www.w3.org/2000/svg" viewBox="0 0 2040.37 2035.6">
  <g id="Layer_1-2" data-name="Layer 1">
    <g>
      <path d="M1642.63,397.39c30.58,30.58,45.87,70.66,45.87,110.74,0,40.08-15.28,80.15-45.86,110.73L271.76,1989.73c-56,56-143.85,60.72-205.22,14.17-7.39-5.2-14.31-11.03-20.68-17.4-28.33-28.33-45.86-67.49-45.86-110.73v-744.09c0-86.49,70.11-156.6,156.6-156.6,43.25,0,82.4,17.53,110.74,45.87s45.86,67.49,45.86,110.73v373.66L1421.16,397.39c61.16-61.16,160.31-61.16,221.47,0Z"/>
      <rect x="1727.49" y="0" width="312.88" height="312.88" rx="156.44" ry="156.44" transform="translate(441.17 1377.96) rotate(-45)"/>
    </g>
  </g>
</svg>