<?xml version="1.0" encoding="UTF-8"?>
<svg id="Layer_2" data-name="Layer 2" xmlns="http://www.w3.org/2000/svg" viewBox="0 0 2118.07 2721.76">
  <g id="Layer_1-2" data-name="Layer 1">
    <g>
      <rect x=".97" y="1468.51" width="1193.66" height="218.02" rx="109.01" ry="109.01"/>
      <rect x=".97" y="1930.88" width="1453.55" height="218.02" rx="109.01" ry="109.01"/>
      <path d="M1978.07,2721.76H140c-77.32,0-140-62.68-140-140s62.68-140,140-140h1698.07v-1367.47c0-28.75-5.58-56.8-16.58-83.36-11-26.57-26.89-50.34-47.22-70.67l-576.45-576.45c-20.33-20.33-44.11-36.22-70.67-47.22-26.56-11-54.61-16.58-83.36-16.58H140C62.68,280,0,217.32,0,140S62.68,0,140,0h903.78c65.71,0,129.81,12.75,190.51,37.9,60.71,25.15,115.05,61.46,161.51,107.92l576.45,576.45c46.46,46.46,82.77,100.81,107.92,161.51s37.9,124.8,37.9,190.51v1507.47c0,77.32-62.68,140-140,140Z"/>
    </g>
  </g>
</svg>