<?xml version="1.0" encoding="UTF-8"?>
<svg id="Layer_2" data-name="Layer 2" xmlns="http://www.w3.org/2000/svg" viewBox="0 0 1657.53 2163.63">
  <g id="Layer_1-2" data-name="Layer 1">
    <path d="M1617.72,697.48L960.05,39.81C934.56,14.32,899.99,0,863.96,0H250.14C111.99,0,0,111.99,0,250.14v1663.36c0,138.14,111.99,250.13,250.14,250.13h1157.24c138.15,0,250.14-111.99,250.14-250.14V793.57c0-36.04-14.32-70.61-39.81-96.1ZM1286.11,1752.37c-8.92,8.91-21.24,14.43-34.86,14.43H237.35c-27.23,0-49.31-22.08-49.31-49.3,0-13.62,5.52-25.94,14.45-34.86,8.92-8.92,21.24-14.45,34.86-14.45h1013.91c27.23,0,49.3,22.08,49.3,49.31,0,13.61-5.51,25.94-14.43,34.86ZM188.04,1416.52c0-13.61,5.52-25.94,14.45-34.86,8.92-8.91,21.24-14.43,34.86-14.43h820.25c27.23,0,49.31,22.08,49.31,49.3,0,13.62-5.52,25.94-14.45,34.86s-21.24,14.45-34.86,14.45H237.35c-27.23,0-49.31-22.08-49.31-49.31ZM1434.65,1183.07c-8.91,8.92-21.24,14.45-34.85,14.45H237.35c-27.23,0-49.31-22.08-49.31-49.31,0-13.61,5.52-25.94,14.45-34.85,8.92-8.92,21.24-14.45,34.86-14.45h1162.45c27.22,0,49.3,22.08,49.3,49.3,0,13.61-5.52,25.95-14.45,34.86Z"/>
  </g>
</svg>