<?xml version="1.0" encoding="UTF-8"?>
<svg id="Layer_2" data-name="Layer 2" xmlns="http://www.w3.org/2000/svg" viewBox="0 0 3003 1922.35">
  <g id="Layer_1-2" data-name="Layer 1">
    <path d="M2490.04,1922.35H512.97c-64.29,0-120.32-43.79-135.85-106.18L4.16,318.06c-14.78-59.36,10.69-121.43,62.9-153.31,52.21-31.88,119.06-26.17,165.11,14.09l700.55,612.51L1382.53,66.2C1408.06,25.04,1453.06,0,1501.5,0s93.45,25.04,118.98,66.2l449.82,725.15,700.55-612.51c58.21-50.89,146.65-44.96,197.55,13.25,50.89,58.21,44.96,146.65-13.24,197.55l-824.72,721.08c-25.69,22.46-58.49,34.6-92.15,34.61-6.89,0-13.81-.51-20.73-1.54-40.65-6.08-76.58-29.73-98.25-64.66l-417.81-673.54-417.81,673.54c-21.67,34.93-57.59,58.57-98.25,64.66-40.65,6.08-81.93-6.01-112.87-33.06l-488.98-427.53,238.79,959.16h1867.65c77.32,0,140,62.68,140,140s-62.68,140-140,140Z"/>
  </g>
</svg>