<?xml version="1.0" encoding="UTF-8"?>
<svg id="Layer_2" data-name="Layer 2" xmlns="http://www.w3.org/2000/svg" viewBox="0 0 2446.54 1706.11">
  <g id="Layer_1-2" data-name="Layer 1">
    <g>
      <path d="M281.15,1503.98h1884.24c37.94,0,66.57,34.43,59.66,71.73l-10.49,56.6c-7.92,42.77-45.23,73.8-88.73,73.8H320.7c-43.5,0-80.8-31.03-88.73-73.8l-10.49-56.6c-6.91-37.3,21.72-71.73,59.66-71.73Z"/>
      <path d="M2445.24,387.11l-159.32,860.02c-8.29,44.73-47.3,77.18-92.79,77.18H253.41c-45.49,0-84.5-32.45-92.79-77.18L1.3,387.11c-12.65-68.27,70.07-112.27,119.61-63.63l469.86,461.29c49.72,48.82,132.26,36.95,166.22-23.9L1161.24,36.42c27.1-48.56,96.96-48.56,124.06,0l404.25,724.45c33.96,60.85,116.5,72.72,166.22,23.9l469.86-461.29c49.54-48.64,132.26-4.64,119.61,63.63Z"/>
    </g>
  </g>
</svg>