<?xml version="1.0" encoding="UTF-8"?>
<svg id="Layer_2" data-name="Layer 2" xmlns="http://www.w3.org/2000/svg" viewBox="0 0 2323.79 2323.79">
  <g id="Layer_1-2" data-name="Layer 1">
    <path d="M2166.36,1004.46c86.95,0,157.44,70.49,157.44,157.44,0,43.49-17.62,82.84-46.11,111.33s-67.85,46.11-111.33,46.1h-847.01v847.02c0,86.95-70.49,157.44-157.44,157.44-43.47,0-82.83-17.62-111.33-46.12s-46.11-67.85-46.11-111.32v-847.02s-847.02,0-847.02,0c-86.95,0-157.44-70.49-157.44-157.44,0-43.47,17.62-82.83,46.11-111.32,28.5-28.5,67.85-46.12,111.33-46.12h847.03s0-847.02,0-847.02C1004.46,70.49,1074.94,0,1161.9,0c43.47,0,82.84,17.63,111.33,46.12,28.49,28.49,46.12,67.85,46.12,111.33v847.01s847.02,0,847.02,0Z"/>
  </g>
</svg>