<?xml version="1.0" encoding="UTF-8"?>
<svg id="Layer_2" data-name="Layer 2" xmlns="http://www.w3.org/2000/svg" viewBox="0 0 923.38 1808.65">
  <g id="Layer_1-2" data-name="Layer 1">
    <path d="M923.38,919.28l-13.72,4.75,5.48-17.52-11.09.4,1.42-10.93,10.19,6.81,2.04-22.88-9.87-13.34,7.92-34.6-13.13-11.66,5.89-12.06-13.61-10.82,2.65-12.74-8.72-10.74,2.03-21.27-17.14-10.56,10.93-4.46-15.02-10.16-15.92-38.69-.18-14.88-15.26-3.28-22.51-30.35,10.86-1.93c-7.83-5.66-14.41-9.56-21.16-15.06-6.99-5.69-8.59-18.39-16.08-23.57-5.9-3.86-14.13-3.89-14.83-13.45l7.6,6.43c.72-3.81,1.53-10.34-.29-12.61-3.26-4.07-8.96-11-13.21-13.4l-39.04-22.05,5.87-6.71-23.09.94-29.51-22.42-.9-12.36-16.65-5.46,6.15,7.08c-11.94,2.83-24.16,2.18-33.83-6.29l10.27-5.43-39.05-1.45,7.12-7.47-27.2-2.5-34.76-27.79-29-1.25-13.93-72.91-2.77,6.85c-5.38-16.06-.75-90.12,1.82-101.01l12.92-54.76-5.32,7,3.39-19.78-9.6,6.82c-9.87-21.75-10.14-28.69-13.1-49.9l4.38,5.8,2.72-47.14,7.14-38.7,2.39-48.08c-14.63-25.8-15.47-29.4-40.26-47.74l9.39,18.4c-1.72,47.18-.76,42.64-27.35,78.03l4.92,13.24-8.51,14.93,10.8,3.16c-2.78,4.84-8.15,9.12-12.78,10.11,2.14,4.66,2.89,10.73,1.06,15.34l-9.56,23.98,6.01-3.54-5.4,12.93c-1.53,3.65.11,10.29.28,15.21.12,3.46-5.69,9.53-6.08,12.94l-1.36,12.11-12.93,4.72,14.97,1.4-2.4,19.62c-2.73-3.13-3.56-3.56-3.39-.55-3.38,10.5-2.53,18.04.61,27.83l-17.14,11.99,3.04,22.56,12.36,7.46-9.23,15.53,11.33,5.68-23.46,11.14,7.99,7.88c-3.81,6.7-9.13,11.52-15.82,15.82l-1.51,22.28,5.55-4.79-.99,13.69,7.69,10.13-4.64,26.27-37.59-2.92.85,14.16-31.01-1.96,1.33,11.44-15.6,3.59-.73-10.04-12.85,11.36-35.19,6.11-41.06,41.01-18.22-1.82-9.06,18.85-28.71,12.51-23.48,31.89-20.02-6.24-5.08,28.18-21.75,19.56,1.85-21.86-54.14,81.07,17.26-12.03-5.19,11.47,4.51,18.28-16.01.77-10.67,33.79c-5.42-12.81,4-23.55,4.54-36.04-16.58,16.94-10.67,14.02-16.34,31.58-9.25,28.66-14.03,15.64-13.23,60.15l4.73-2.51c-.2,9.8-6.24,20.16-5.43,29.85l5.51,66.52c-5.07-2.2-9.61-4.67-13.02-7.19l-.58-31.3-8.4,33.45c-.8,3.18-3.88,8.62-5.48,12.05l2.53,35.44,4.88-19.62,7.22,11.87c1.6-14.93-9.86-23.32-4.27-32.18l13.04,8.28-1.04,38.37c-4.43,2.06-7.22-1.46-10.41-6.13-6.77,5.53-1.78,32.98.15,41.67l9.72,43.9,1.59-11.42,7.97,36.15,28.48,69.7-11.22-.73,47.74,65.77,13.4,2.8,3.26,12.86,19.86,8.97-.48,15.78,18.07-1.97,11.18,27.66,13.22,2.5,11.47,17.8c-17.91-5.57-31.28-13.39-47.24-22.77l4.41,13.94,50.23,29.68,28.21,9.92,11.76,15.64,13.74,2.03,20,19.73,36.85-10.8.9,13,10.77,2.18,1.67,7.84c3.62-.29,10.7-1.37,12.86.83l17.22,17.53v-13.13c8.08-1.08,18.28-1.72,27.88-.69l8.64,5.66c7.67.22,16.65.66,23.69,1.86,13.53,31.27,7.92,19.89,7.76,51.96l5.06-8.47c1.15,5.32,3.44,12.25,2.98,17.47l-5.14,57.86,6.61-2.1,5.55,39.08,6.12-11.48,7.26,34.04c-6.68,15.93-12.3,12.25-4.75,31.28l10.3,4.75c1.15,4.26,4.53,12.07,4.07,16.2l-3.28,29.44,8.61-16.47c4.53,5.74,5.26,11.84,4.71,19.07l-1.66,21.86c1.75,3.22,6.53,8.96,7.31,12.22,1.96,9.76,3.79,19.94,4.18,29.94.42,10.66-6.07,33.45-3.75,34.84l4.74,2.85-6.42,1.49c2.72,6.43,6.88,11.92,7.04,17.23l.9,28.99c.26,8.15,4.24,18.29,8.15,25.81l11.27,21.64-.83-14.94c-.41-7.44-.83-15.58,1.85-22.79l14.01-12.02-3.23-19.76-4.9,10.4c-1.53-20.08,1.77-27.93,4.84-47.33l23.2-18.35-12.86-8.07c-4.74-23.95-4.77-48.24,4.04-72.24l9.93,24.62c1.98-14.61,6.35-27.27,4.06-40.45l-6.62-38.2,1.08-41.69c.19-7.19-5.18-15.47-7.27-22.12l-11.47-5.74,17.22-12.29c-7.71-32.57-8.29-19.85-.08-51.34l-9.99-12.45,5.61-26.6-9.77-3.85c1.86-5.36,3.59-12.29,6.41-16.02l11.34-14.96,8.78,3.04,6.18-10.67c3.64-2.37,11.35-3.62,15.75-3.64l5.9,15.38,6.97-17.29,32.14-.9-11.41-4.6,4.38-9.9c.84-1.88,5.89-2.54,8.04-1.56,1.87.84.89,5.46.38,9.32,22.65,7.82,18.35-8.14,39.85-5.98l8.19-21.52,12.26,5.91,62.34-35.81c.64-.37,1.67-1.27,1.34-1.54l-2.76-2.39,40.18-24.8c-3.56-1.73-9-3.62-12.12-3.64l-10.13,9.32c-13.98,7.91-30.19,11.06-41.98,19.69-4.1,3.01-7.5,6.96-14.47,7.38-5.99-4.26,36.53-27.91,36.54-27.91l42.54-19.7-1.58-17.86,18.34-4.34,1.26-13.65,12.13-4.17,17.81-27.47-11.71,4.04,16.94-20.8c1.76-2.17,7.46-6.02,10.4-6.08l21.75-.44,21.38-28.92-7.25,1.66,13.78-19.71-8.29.27,18.12-20.68,10.96-6.25-13.18-2.04,6.14-17.51-9.95,12.59c-.69-4.22-1.26-10.07-1.09-13.52l10.57-6.74-1.77-11.46,15.47-37.05-4.18-16.85,10.19-1.37-6.55-13.26,10.7-4.11,1.96-25.65ZM430.45,1108.62l2.71,11.08c3.02,12.34-2.8,11.26.12,33.06l-10.31-3.66,5.06,59.33-12.78-8.78.92,19.23c.14,2.88-2.19,8.18-2.57,10.97l-2.41,17.67c-8.47,1.19-14.26-2.05-19.04-9.47l-24.68,4.38-14.21-14.92c-13.2-.55-27.05-1.38-36.86-10.41l-13.25-12.18c-3.75-3.44-12.15-4.98-16.87-7.43-2.76-1.41-3.37-8.7-3.72-12.66l-35.53-20.3c-6.69-3.82-6.19-15.33-7.52-24.05l-11.01,4.29-33.88-39.64-.14-17.76-18.29-9.94-.48-10.51-9.47-2.31,11.94-6.71-20.71-11.63-3.57-13.55c-4.54-6.07-6.79-11.46-3.79-19.04l-6.73-8.06,5.97-10.23-13.58-1.35,15.22-6.97c-6.6-11.6-17.5-8.84-19.85-13.5-.66-1.33,2.94-4.2,4.49-3.9l14.05,2.67c6.06-21.44-12.43-14.82-11.75-52.99l-18.63-7.1-.79-21.27c6.16,2.47,11.03,1.33,16.32-2.87l3.5,12.03c9.23-13.01,9.01-11.73,6.08-28.35l-7.51-6.25,9.35-3.75,4.54-22.4c-4.44-8.68-9.76-16.37-15.69-25.09l12.88-2.4c-1.55-7.5-4.46-12.42-11.5-16.98l15.71-19.82,9.13,20.17c5.58-18.92,3.87-15.47-1.19-33.14l6.01,3.64,3.73-16.97,11.06-6.38,19.01-23.09-6.59-21.06,9.96-9.39,5.7,8.86c6.49-10.09,9.05-18.4,11.74-29.42l16.85-7.13,17.45-34.36,2.38,14.47,18.87-5.84-9.1-10.59c7.51-7.86,8.7,7.58,21.81,3.02l-2.86-19.71,26.39-35.23,24.96-11.42-8.72,19.38,21.75-10.78c3.58-1.77,11.19.45,16.35.84l3.17-10.38,45.85,2.89c4.12,4.66-.72,12.94-6.27,15.51.88,3.46,4.47,22.53,1.46,23.23.72-.04,2.66-.12,3.36-.15.72,13.74,2.28,27.77,4.38,42.4,1.17,8.1,1.31,15.78,2.1,23.79l3.01,30.37,9.89,7.69c1.69,1.32-.38,7.93-1.42,8.36l-14.46-6.21,5.84,18.27-20.99,17.13,2.37,26.59,6.74,5.74c4.92,4.18-7.97,7.14,9.07,25.91l-10,4.66,20.43,26.17-10.69,10.87,10.99-1.57-3.51,38.44-10.3,15.7,6.47-.06-6.83,16.73-2.25,61.52c1.75-4.48,2.07-8.63,3.16-13.72,1.91,11.01.25,23.23,2.98,34.69,3.36,14.11,11.19,27.87,7.81,43.18-1.26,5.68-1.07,9.6,3.4,14.67l-2.57,22.24,7.47-4.57.12,43.33-7.21-5.77ZM787.54,881.39l15.54,8.14-14.16,2.12,15.12,19.99c-3.87,7.04-8.82,14.07-11.74,21.19-3.5,8.55,4.37,17.04,8.79,22.89,7.14,9.48-7.26,17.42-7.62,23.03l3.79,27.39c.16,1.15-2.12,4.81-2.76,5.66-.64.84-2.17-.67-4.72-2.7l-3.98,16.61c4.35,2.03,6.71,3.01,8.41,4.1,1.71,1.09,1.2,8.09-.02,9.8l-13.38,18.8,10.7-2.55c-7.52,11.7-12.08,25.23-22.4,33.41l-22.78,18.05c-8.85,7.02-7.28,44.15-27.14,37.23-14.33-4.99-15.61,13.42-45.38,23.54-2.78.94-9.67.93-12.19,1.26l-2.81,10.8c-3.66-1.99-10.06-4.51-11.14-2.04-1.05,2.42-2.41,7.07-3.64,8.8-1.22,1.72-5.3,1.78-8.27,1.42-10.55-1.26-.3,4.9-19.52,12.47l-2.46-5.45c-17.62,18.54-13.97,12.72-36.32,25.13l4.88,5.93-20.21,11.83,1.49-11.83-22.22,12.33.87-49.03.74-41.68-7.52,14.91c-3.62-21.29-6.18-30.94-1.17-51.83l-13.36-6.49c-1.42-37.48.95-32.62,10.53-66.44l-9.05,6.51,2.7-32.23-5.37,5.64,14.77-109.07c1.6-11.79,8.7-22.59,11.31-34.37l-11.18,5,19.44-34.96-4.02-13.5,10.37-26.22c1.45-3.68,1.9-10.07,2.87-14.71l12.87-7.5-11.69-6.71-19.13,5.1-.26-41.91-7.34-6.91,2.7-31.61-12.33,7.54-20.79-29.16c-1.49-2.08-1.5-29.73,10.09-36.01l10.18,8-9.99-29.18,20.85-23.41-7.71,3.27c6.9-11.02,11.48-20.47,12.08-35.41l51.18,5.16c4.37.44,9.17,6.61,11.97,10.6l-18.18-.21,4.93,10.76,31.1,7.37-12.35,3.25,30.5,5.42,9.38,14.24c6.28,3.1,15.51,3.77,21.06,7.49l19.88,13.33-6.09,1.43c33.44,27.81,22.89,11.52,41.42,50.22l20.98,12.08c.61,6.35,3.18,9.65,9.36,10.5,12.88,1.79-1.35,9.34,9.99,14.27l-10.35,5.96c8.81,2.5,18.33,8.8,18.98,18.12.44,6.33-.85,13.66-1.26,20.15l14.17,8.6,19.03,28.85-14.33,7.02c3.64,1.56,8.32,3.61,9.97,4.91l-5.57,9.14c1.46.54,4.35,1.5,5.43,2.58,1.29,1.3.73,5.79.2,8.4-2.24-1.34-8.28-5.6-8.85-8.62l-3.05-16.04c-1.56.08-6.06.59-8.11.91-2.32.36-4.49,7.74-3.37,9.89,3.55,6.87,9.12,14.62,14.06,22.06l-3.8,12.73,8.82,7.62,5.03-12.85,4.45,14.89-21.9,4.79ZM411.08,602.22c-.26.01-.35.02-.17.02.06,0,.12-.01.17-.02Z"/>
  </g>
</svg>