<?xml version="1.0" encoding="UTF-8"?>
<svg id="Layer_2" data-name="Layer 2" xmlns="http://www.w3.org/2000/svg" viewBox="0 0 1930.03 2421.39">
  <g id="Layer_1-2" data-name="Layer 1">
    <g>
      <path d="M965.01,0C571.38,0,252.29,319.09,252.29,712.72s319.09,712.73,712.72,712.73,712.73-319.1,712.73-712.73S1358.63,0,965.01,0ZM965.01,1169.31c-252.16,0-456.59-204.42-456.59-456.59s204.42-456.59,456.59-456.59,456.59,204.42,456.59,456.59-204.42,456.59-456.59,456.59Z"/>
      <path d="M1899.3,2096.72l-405.9-679.02c-62.57,53.9-133.47,98.4-210.5,131.3l369.71,622.36H277.41l370.51-622.02c-77.34-32.94-148.52-77.56-211.3-131.64L30.72,2096.72c-85.48,143.02,17.55,324.67,184.19,324.67h1500.21c166.63,0,269.68-181.65,184.18-324.67Z"/>
    </g>
  </g>
</svg>