<?xml version="1.0" encoding="UTF-8"?>
<svg id="Layer_2" data-name="Layer 2" xmlns="http://www.w3.org/2000/svg" viewBox="0 0 2663.47 2659.05">
  <g id="Layer_1-2" data-name="Layer 1">
    <g>
      <path d="M597.62,1739.56h-274.79C144.8,1739.56.48,1883.88.48,2061.91v274.79c0,178.03,144.32,322.35,322.35,322.35h274.79c178.03,0,322.35-144.32,322.35-322.35v-274.79c0-178.03-144.32-322.35-322.35-322.35ZM671.6,2286.5c0,68.58-55.6,124.18-124.18,124.18h-174.39c-68.58,0-124.18-55.6-124.18-124.18v-174.39c0-68.58,55.6-124.18,124.18-124.18h174.39c68.58,0,124.18,55.6,124.18,124.18v174.39Z"/>
      <rect x="1700.26" y="1693.28" width="1601.58" height="319.35" rx="159.68" ry="159.68" transform="translate(648.09 4354) rotate(-90)"/>
      <rect x="0" y="1126.53" width="2088.83" height="319.35" rx="159.68" ry="159.68"/>
      <rect x="1219.55" y="2339.3" width="865.55" height="319.35" rx="159.68" ry="159.68"/>
      <rect x="1219.55" y="1747.45" width="865.55" height="319.35" rx="159.68" ry="159.68"/>
      <rect x="897.2" y="273.1" width="865.55" height="319.35" rx="159.68" ry="159.68" transform="translate(897.2 1762.75) rotate(-90)"/>
      <path d="M597.34,4.94h-274.79C144.52,4.94.2,149.26.2,327.29v274.79c0,178.03,144.32,322.35,322.35,322.35h274.79c178.03,0,322.35-144.32,322.35-322.35v-274.79c0-178.03-144.32-322.35-322.35-322.35ZM671.32,551.88c0,68.58-55.6,124.18-124.18,124.18h-174.39c-68.58,0-124.18-55.6-124.18-124.18v-174.39c0-68.58,55.6-124.18,124.18-124.18h174.39c68.58,0,124.18,55.6,124.18,124.18v174.39Z"/>
      <path d="M2341.12,4.94h-274.79c-178.03,0-322.35,144.32-322.35,322.35v274.79c0,178.03,144.32,322.35,322.35,322.35h274.79c178.03,0,322.35-144.32,322.35-322.35v-274.79c0-178.03-144.32-322.35-322.35-322.35ZM2415.1,551.88c0,68.58-55.6,124.18-124.18,124.18h-174.39c-68.58,0-124.18-55.6-124.18-124.18v-174.39c0-68.58,55.6-124.18,124.18-124.18h174.39c68.58,0,124.18,55.6,124.18,124.18v174.39Z"/>
    </g>
  </g>
</svg>